<svg xmlns="http://www.w3.org/2000/svg" version="1.1" xmlns:xlink="http://www.w3.org/1999/xlink" xmlns:svgjs="http://svgjs.dev/svgjs" width="1000" height="1000" viewBox="0 0 1000 1000"><rect width="1000" height="1000" fill="#ffffff"></rect><g transform="matrix(0.7,0,0,0.7,149.57575757575756,439.95470540777455)"><svg viewBox="0 0 396 68" data-background-color="#ffffff" preserveAspectRatio="xMidYMid meet" height="171" width="1000" xmlns="http://www.w3.org/2000/svg" xmlns:xlink="http://www.w3.org/1999/xlink"><g id="tight-bounds" transform="matrix(1,0,0,1,0.2400000000000091,0.1109442963352194)"><svg viewBox="0 0 395.52 67.77811140732953" height="67.77811140732953" width="395.52"><g><svg viewBox="0 0 494.79422622072286 84.7901956626506" height="67.77811140732953" width="395.52"><g transform="matrix(1,0,0,1,0,11.71847132530121)"><svg viewBox="0 0 395.52 61.353253012048185" height="61.353253012048185" width="395.52"><g id="textblocktransform"><svg viewBox="0 0 395.52 61.353253012048185" height="61.353253012048185" width="395.52" id="textblock"><g><svg viewBox="0 0 395.52 61.353253012048185" height="61.353253012048185" width="395.52"><g transform="matrix(1,0,0,1,0,0)"><svg width="395.52" viewBox="1.25 -35.54999923706055 232.38999938964844 36.04999923706055" height="61.353253012048185" data-palette-color="#000000"><path d="M21.4-9.25L27.4-35 40.75-35 40.75-34.05 38-34.05 38-0.95 40.75-0.95 40.75 0 25.5 0 25.5-0.95 28.25-0.95 28.25-32.2 28.05-32.2 20.55 0 14.3 0 5.5-32.35 5.3-32.35 5.3-0.95 8.05-0.95 8.05 0 1.25 0 1.25-0.95 4-0.95 4-34.05 1.25-34.05 1.25-35 14.75-35 21.4-9.25ZM67.05-15.45L67.05-15.45 67.05-19.15Q67.05-28.3 66.15-30.7L66.15-30.7Q65.15-33.45 63.3-34.1L63.3-34.1Q62.25-34.5 60.75-34.5 59.25-34.5 58.17-34.1 57.1-33.7 56.4-32.7 55.7-31.7 55.27-30.6 54.85-29.5 54.6-27.5L54.6-27.5Q54.3-24.6 54.3-18.95L54.3-18.95 54.3-15.35Q54.3-9.25 54.77-6.68 55.25-4.1 55.95-3L55.95-3Q57.5-0.55 60.75-0.55L60.75-0.55Q64.7-0.55 65.87-3.88 67.05-7.2 67.05-15.45ZM60.65 0.5Q52.3 0.5 48.17-4.03 44.05-8.55 44.05-17.13 44.05-25.7 48.47-30.63 52.9-35.55 61-35.55 69.1-35.55 73.22-30.88 77.35-26.2 77.35-17.6 77.35-9 73.17-4.25 69 0.5 60.65 0.5ZM111.65-34.05L108.9-34.05 108.9 0 101.9 0 84.75-32.35 84.75-0.95 87.5-0.95 87.5 0 80.65 0 80.65-0.95 83.4-0.95 83.4-34.05 80.65-34.05 80.65-35 94.45-35 107.55-9.9 107.55-34.05 104.8-34.05 104.8-35 111.65-35 111.65-34.05ZM113.94-33.9L113.94-35 139.94-35 140.44-25.1 139.54-25.1Q137.44-30.15 135.14-32.02 132.84-33.9 128.39-33.9L128.39-33.9 126.64-33.9 126.64-18.45 128.34-18.45Q130.69-18.45 132.29-20.23 133.89-22 134.54-25L134.54-25 135.29-25 135.29-10.2 134.44-10.2Q133.54-13.95 132.02-15.55 130.49-17.15 127.84-17.15L127.84-17.15 126.64-17.15 126.64-1.1 128.54-1.1Q133.14-1.1 136.37-3.85 139.59-6.6 140.79-10.9L140.79-10.9 141.79-10.9 141.39 0 113.94 0 113.94-1.1 116.89-1.1 116.89-33.9 113.94-33.9ZM144.89-35L174.39-35 174.89-22.45 173.94-22.45Q171.74-29.1 170.04-31.53 168.34-33.95 165.14-33.95L165.14-33.95 164.54-33.95 164.54-1.05 168.79-1.05 168.79 0 150.54 0 150.54-1.05 154.79-1.05 154.79-33.95 154.14-33.95Q150.94-33.95 149.19-31.43 147.44-28.9 145.34-22.45L145.34-22.45 144.39-22.45 144.89-35ZM189.54-0.95L193.09-0.95 189.44-11.75 179.54-11.75 175.69-0.95 179.44-0.95 179.44 0 171.79 0 171.79-0.95 174.14-0.95 186.89-35.3 190.99-35.3 203.59-0.95 205.89-0.95 205.89 0 189.54 0 189.54-0.95ZM189.04-12.85L184.69-25.95 179.99-12.85 189.04-12.85ZM221.94-0.55L221.94-0.55Q224.44-0.55 226.36-1.9 228.29-3.25 228.29-5.98 228.29-8.7 226.21-10.15 224.14-11.6 220.31-12.68 216.49-13.75 214.76-14.55 213.04-15.35 211.49-16.65L211.49-16.65Q208.39-19.25 208.39-24.7L208.39-24.7Q208.39-29.15 211.56-32.35 214.74-35.55 220.24-35.55L220.24-35.55Q222.89-35.55 225.76-34.77 228.64-34 229.34-34 230.04-34 230.59-35L230.59-35 231.14-35 231.49-24.9 230.69-24.9Q228.29-29.25 225.66-31.88 223.04-34.5 219.96-34.5 216.89-34.5 215.19-33.08 213.49-31.65 213.49-29.28 213.49-26.9 215.51-25.63 217.54-24.35 220.49-23.55 223.44-22.75 224.36-22.45 225.29-22.15 226.66-21.63 228.04-21.1 228.91-20.53 229.79-19.95 230.76-19.07 231.74-18.2 232.29-17.15L232.29-17.15Q233.64-14.75 233.64-11.45L233.64-11.45Q233.64-6.05 230.26-2.78 226.89 0.5 221.39 0.5L221.39 0.5Q218.54 0.5 214.86-0.25 211.19-1 210.79-1L210.79-1Q210.09-1 209.44 0.5L209.44 0.5 208.74 0.5 208.24-11.4 209.09-11.4Q211.29-7.05 214.71-3.8 218.14-0.55 221.94-0.55Z" opacity="1" transform="matrix(1,0,0,1,0,0)" fill="#000000" class="undefined-text-0" data-fill-palette-color="primary" id="text-0"></path></svg></g></svg></g></svg></g></svg></g><g transform="matrix(1,0,0,1,410.00403055807226,0)"><svg viewBox="0 0 84.7901956626506 84.7901956626506" height="84.7901956626506" width="84.7901956626506"><g data-palette-color="#000000"><rect width="23.175986814457833" height="84.7901956626506" fill="#000000" stroke="transparent" data-fill-palette-color="accent" x="0" fill-opacity="1"></rect><rect width="23.175986814457833" height="84.7901956626506" fill="#000000" stroke="transparent" data-fill-palette-color="accent" x="28.26339855421687" fill-opacity="0.75"></rect><rect width="23.175986814457833" height="84.7901956626506" fill="#000000" stroke="transparent" data-fill-palette-color="accent" x="56.52679710843374" fill-opacity="0.5"></rect></g></svg></g></svg></g><defs></defs></svg><rect width="395.52" height="67.77811140732953" fill="none" stroke="none" visibility="hidden"></rect></g></svg></g></svg>